<?xml version="1.0" encoding="utf-8"?>
<!-- Generator: Adobe Illustrator 26.5.0, SVG Export Plug-In . SVG Version: 6.00 Build 0)  -->
<svg version="1.1" id="Layer_1" xmlns="http://www.w3.org/2000/svg" xmlns:xlink="http://www.w3.org/1999/xlink" x="0px" y="0px"
	 viewBox="0 0 500 500" style="enable-background:new 0 0 500 500;" xml:space="preserve">
<style type="text/css">
	.st0{fill:#40C9FF;}
	.st1{fill:#171430;}
</style>
<circle class="st0" cx="250" cy="250" r="244.9"/>
<g>
	<path class="st1" d="M257,112.9c-4.7-0.5-9.4-0.5-14,0c-73,3.8-130.4,64-130.5,137.1c0,43,18.8,70.5,57.4,84l5.7-16.2
		c-21.4-5.9-38-22.9-43.3-44.5c19.8-12.5,31.7-34.3,31.7-57.7c0-13-3.8-25.8-10.9-36.7c10.3-14.1,23.5-25.7,38.7-34.2
		c-20.3,32.1-10.6,74.6,21.5,94.8s74.6,10.6,94.8-21.5c14.1-22.4,14.1-50.9,0-73.3c15.2,8.5,28.4,20.1,38.7,34.2
		c-20.4,31.5-11.4,73.5,20,93.9c0.3,0.2,0.5,0.3,0.8,0.5c-5.3,21.6-21.8,38.6-43.3,44.5l5.7,16.2c38.7-13.6,57.4-41.1,57.4-84
		C387.4,176.9,330.1,116.6,257,112.9z"/>
	<path class="st1" d="M250,293c-68.8,0-85.9,25.8-85.9,38.7c0,30.1,17.2,55.9,85.9,55.9s85.9-25.8,85.9-55.9
		C335.9,318.8,318.8,293,250,293z M232.8,335.9c0,4.7-3.8,8.6-8.6,8.6s-8.6-3.8-8.6-8.6v-17.2c0-4.7,3.8-8.6,8.6-8.6
		s8.6,3.8,8.6,8.6V335.9z M284.4,335.9c0,4.7-3.8,8.6-8.6,8.6s-8.6-3.8-8.6-8.6v-17.2c0-4.7,3.8-8.6,8.6-8.6s8.6,3.8,8.6,8.6V335.9z
		"/>
</g>
</svg>
