<?xml version="1.0" encoding="utf-8"?>
<!-- Generator: Adobe Illustrator 26.5.0, SVG Export Plug-In . SVG Version: 6.00 Build 0)  -->
<svg version="1.1" id="Layer_1" xmlns="http://www.w3.org/2000/svg" xmlns:xlink="http://www.w3.org/1999/xlink" x="0px" y="0px"
	 viewBox="0 0 500 500" style="enable-background:new 0 0 500 500;" xml:space="preserve">
<style type="text/css">
	.st0{fill:#40C9FF;}
	.st1{fill:#171430;}
</style>
<circle class="st0" cx="250" cy="250" r="244.9"/>
<g>
	<path class="st1" d="M380.7,177c-14.1-3.1-26.1-12.5-32.4-25.6c-11.6-23.4-39.9-32.9-63.3-21.4c-16.1,8-26.3,24.3-26.3,42.3
		c0,17.6,6.8,34.6,18.9,47.3l0,0c-77.5,0-113.4,25.8-113.4,25.8l-40.3-13.4c-4.5-1.5-9.4,1-10.8,5.5c-0.3,0.9-0.4,1.8-0.4,2.7v5.3
		l0,0v17.1c0,60.1,60.1,111.7,137.5,111.7c60.1,0,120.3-34.3,120.3-85.9c0-34.3-30-60.1-30-81.6c0-7.1,5.8-12.8,12.8-12.9h25.8
		c4.7,0,8.6-3.8,8.6-8.6C387.5,181.2,384.6,177.7,380.7,177z M224.3,331.2c-4.7,0-8.6-3.8-8.6-8.6s3.8-8.6,8.6-8.6
		c28.5,0,51.5-23.1,51.5-51.5c0-4.7,3.8-8.6,8.6-8.6c4.7,0,8.6,3.8,8.6,8.6C293,300.5,262.3,331.2,224.3,331.2z M305.9,172.3
		c-4.7,0-8.6-3.8-8.6-8.6c0-4.7,3.8-8.6,8.6-8.6c4.7,0,8.6,3.8,8.6,8.6C314.5,168.5,310.7,172.3,305.9,172.3z"/>
</g>
</svg>
