<?xml version="1.0" encoding="utf-8"?>
<!-- Generator: Adobe Illustrator 26.5.0, SVG Export Plug-In . SVG Version: 6.00 Build 0)  -->
<svg version="1.1" id="Layer_1" xmlns="http://www.w3.org/2000/svg" xmlns:xlink="http://www.w3.org/1999/xlink" x="0px" y="0px"
	 viewBox="0 0 500 500" style="enable-background:new 0 0 500 500;" xml:space="preserve">
<style type="text/css">
	.st0{fill:#40C9FF;}
	.st1{fill:#171430;}
</style>
<circle class="st0" cx="250" cy="250" r="244.9"/>
<g>
	<path class="st1" d="M336.5,333.6h-173c-8.7,0-15.7,7-15.7,15.7v23.6h204.5v-23.6C352.2,340.6,345.2,333.6,336.5,333.6z"/>
	<polygon class="st1" points="291.9,231.3 208.1,231.3 183.4,317.8 316.6,317.8 	"/>
	<path class="st1" d="M199.5,215.6h104.3l21.8-17.5c1.9-1.5,3-3.8,2.9-6.1v-55.1c0-4.3-3.5-7.9-7.9-7.9H309c-3.3,0-6.2,2-7.4,5.1
		l-9.9,26.4h-15.9l-6.4-25.5c-0.9-3.5-4-6-7.6-6h-23.6c-3.6,0-6.8,2.5-7.6,6l-6.4,25.5h-15.9l-9.9-26.4c-1.2-3.1-4.1-5.1-7.4-5.1
		h-11.8c-4.3,0-7.9,3.5-7.9,7.9v47.2c0,2.1,0.8,4.1,2.3,5.6L199.5,215.6z"/>
</g>
</svg>
