<?xml version="1.0" encoding="utf-8"?>
<!-- Generator: Adobe Illustrator 26.5.0, SVG Export Plug-In . SVG Version: 6.00 Build 0)  -->
<svg version="1.1" id="Layer_1" xmlns="http://www.w3.org/2000/svg" xmlns:xlink="http://www.w3.org/1999/xlink" x="0px" y="0px"
	 viewBox="0 0 500 500" style="enable-background:new 0 0 500 500;" xml:space="preserve">
<style type="text/css">
	.st0{fill:#40C9FF;}
	.st1{fill:#171430;}
</style>
<circle class="st0" cx="250" cy="250" r="244.9"/>
<g>
	<path class="st1" d="M294.1,127c-57.5-20.2-120.1-20.2-177.6,0c-3.4,1.2-5.7,4.5-5.7,8.1v105.6c0,52.2,42.3,94.5,94.5,94.5
		s94.5-42.3,94.5-94.5V135.1C299.9,131.5,297.6,128.2,294.1,127z M145.2,202c0-7.1,5.8-12.9,12.9-12.9h17.2
		c7.1,0,12.9,5.8,12.9,12.9c0,7.1-5.8,12.9-12.9,12.9h-17.2C150.9,214.9,145.2,209.1,145.2,202z M205.3,300.8
		c-19,0-34.4-15.4-34.4-34.4h68.7C239.7,285.4,224.3,300.8,205.3,300.8z M252.6,214.9h-17.2c-7.1,0-12.9-5.8-12.9-12.9
		c0-7.1,5.8-12.9,12.9-12.9h17.2c7.1,0,12.9,5.8,12.9,12.9C265.5,209.1,259.7,214.9,252.6,214.9z"/>
	<path class="st1" d="M380.1,178.6c-20.4-7.1-41.5-11.8-63-13.8v75.9c0,0.3,0,0.5,0,0.8c1.4-0.5,2.8-0.8,4.3-0.8h17.2
		c7.1,0,12.9,5.8,12.9,12.9s-5.8,12.9-12.9,12.9h-17.2c-2.4,0-4.8-0.7-6.9-2c-4.5,20.5-14.7,39.3-29.3,54.2
		c18.5-3.6,36.3,8.5,39.9,27c0.4,2.2,0.6,4.5,0.6,6.8h-68.8c0-5,1.2-10,3.3-14.5c-13.1,7.4-27.5,12.1-42.4,13.8
		c32.8,40.6,92.2,46.9,132.8,14.2c22.2-17.9,35.1-45,35.1-73.5V186.7C385.8,183,383.5,179.8,380.1,178.6z"/>
</g>
</svg>
